<svg width="1068" height="576" viewBox="0 0 1068 576" fill="none" xmlns="http://www.w3.org/2000/svg">
<rect width="1068" height="576" fill="#FBF9F8"/>
<mask id="mask0_1105_12882" style="mask-type:luminance" maskUnits="userSpaceOnUse" x="403" y="224" width="137" height="188">
<path d="M403.227 333.47L403.538 224.718L539.692 302.349L539.382 411.121L403.227 333.47Z" fill="white"/>
</mask>
<g mask="url(#mask0_1105_12882)">
<path d="M415.618 231.592C407.332 226.907 403.542 229.321 403.5 240.084L403.272 318.123C403.272 328.866 407.084 335.679 415.307 340.365C423.531 345.051 427.405 342.636 427.425 331.894L427.529 299.626L416.737 291.933L416.633 327.433C416.633 328.661 416.115 328.968 415.328 328.538C414.907 328.261 414.568 327.878 414.346 327.428C414.124 326.979 414.027 326.479 414.065 325.981L414.292 244.606C414.292 243.378 414.81 243.051 415.577 243.48C416.002 243.76 416.344 244.146 416.57 244.599C416.795 245.051 416.896 245.555 416.861 246.058V276.034L427.653 280.659V253.916C427.653 243.153 423.842 236.339 415.618 231.654" fill="#683522"/>
<path d="M444.883 345.379C444.457 345.106 444.113 344.724 443.887 344.274C443.661 343.824 443.561 343.323 443.599 342.822L443.827 261.385C443.827 260.158 444.345 259.83 445.132 260.28C445.558 260.559 445.902 260.944 446.128 261.398C446.353 261.851 446.453 262.355 446.416 262.859L446.167 344.274C446.167 345.523 445.65 345.829 444.883 345.379M445.152 248.433C436.867 243.748 433.055 246.162 433.035 256.925L432.807 334.964C432.807 345.707 436.618 352.52 444.842 357.206C453.065 361.892 456.918 359.477 456.96 348.735L457.187 270.695C457.187 259.933 453.376 253.119 445.152 248.433" fill="#683522"/>
<path d="M487.017 272.945L476.246 266.807L475.355 307.73C475.044 320.559 474.837 333.041 474.651 346.729L473.263 345.931C473.139 332.079 473.014 319.331 472.766 306.257L472.124 264.495L461.207 258.356L465.702 368.643L481.922 377.892L487.017 273.089" fill="#683522"/>
<path d="M508.997 285.467L491.141 275.298L490.831 382.822L508.686 393.012L508.728 381.186L501.664 377.155L501.768 338.442L508.189 342.104L508.231 330.278L501.809 326.615L501.913 293.263L508.976 297.294L508.997 285.467Z" fill="#683522"/>
<path d="M524.779 343.967V306.38L525.691 306.891C526.226 307.171 526.668 307.598 526.962 308.121C527.256 308.644 527.39 309.241 527.348 309.838V343.435C527.348 344.827 526.83 345.133 525.67 344.479L524.779 343.967M525.173 294.696L514.132 288.394L513.822 396.021L524.614 402.159L524.738 356.019L525.649 356.53C526.185 356.81 526.626 357.238 526.921 357.761C527.215 358.284 527.349 358.88 527.307 359.477L527.286 392.502C527.103 396.443 527.486 400.391 528.425 404.226L539.466 410.508C538.437 406.644 537.97 402.655 538.078 398.66V371.099C538.078 362.792 535.282 357.799 530.041 353.748V352.213C535.302 353.973 538.14 352.213 538.161 344.683V317.531C538.161 306.789 534.349 299.975 525.09 294.696" fill="#683522"/>
</g>
<mask id="mask1_1105_12882" style="mask-type:luminance" maskUnits="userSpaceOnUse" x="409" y="161" width="249" height="143">
<path d="M409.152 222.467L516.224 161.001L657.91 241.824L550.858 303.269L409.152 222.467Z" fill="white"/>
</mask>
<g mask="url(#mask1_1105_12882)">
<path d="M461.48 205.3L466.016 202.783C478.9 195.683 490.355 189.36 503.095 182.219L504.462 182.997C492.033 190.363 481.034 196.911 468.668 204.297L464.297 206.916L461.48 205.3M536.88 172.787L520.888 163.661L409.777 222.098L420.341 228.237L449.755 211.868L452.904 213.668L424.505 230.508L435.069 236.647L536.88 172.787" fill="#683522"/>
<path d="M556.118 183.755L545.554 177.739L439.082 238.837L455.965 248.454L467.689 241.743L461.392 238.141L556.118 183.755Z" fill="#683522"/>
<path d="M482.915 250.417L520.925 228.606L521.816 229.097C522.935 229.751 522.831 230.386 521.464 231.143L487.389 250.745C486.874 251.122 486.258 251.342 485.618 251.378C484.977 251.415 484.34 251.266 483.785 250.949L482.915 250.438M532.795 221.792L565.938 202.763L566.828 203.254C567.947 203.909 567.843 204.543 566.497 205.3L537.29 222.099C536.773 222.483 536.154 222.707 535.509 222.743C534.863 222.78 534.222 222.627 533.665 222.304L532.795 221.812M577.91 196.195L567.077 190.056L460.626 251.113L471.439 257.252C480.512 262.428 488.839 261.958 499.486 255.84L526.87 240.125C534.783 235.583 535.363 232.084 531.262 228.524L532.774 227.664C539.154 229.895 545.203 229.567 552.722 225.291L575.508 212.196C586.155 206.057 586.942 201.31 577.89 196.133" fill="#683522"/>
<path d="M619.818 220.053L609.233 214.037L515.708 267.728C515.271 268.043 514.758 268.239 514.22 268.297C513.682 268.354 513.138 268.271 512.643 268.055C511.876 267.626 511.98 266.971 513.202 266.296L606.727 212.605L596.163 206.467L504.316 259.318C493.648 265.457 492.861 270.204 500.918 274.787C508.976 279.37 517.303 278.879 527.971 272.741L619.818 220.053Z" fill="#683522"/>
<path d="M657.91 241.802L644.405 234.109L626.217 243.684C613.789 250.191 597.528 258.949 586.073 265.23L584.81 264.514C595.767 257.926 610.847 248.616 622.22 241.516L638.998 231.019L625.389 223.264L519 284.444L528.529 289.886L554.836 274.479C570.579 265.251 595.519 249.925 602.831 245.342L604.177 246.119L532.465 292.137L538.016 295.288L618.056 254.038L619.402 254.795C611.821 258.887 584.644 273.21 568.632 282.356L541.952 297.539L551.397 302.92L657.848 241.802" fill="#683522"/>
</g>
<mask id="mask2_1105_12882" style="mask-type:luminance" maskUnits="userSpaceOnUse" x="545" y="245" width="119" height="168">
<path d="M546.231 412.9L545.941 312.885L663.412 245.894L663.702 345.91L546.231 412.9Z" fill="white"/>
</mask>
<g mask="url(#mask2_1105_12882)">
<path d="M557.229 395.59V359.864L558.141 359.353C559.342 358.678 559.86 358.944 559.881 360.233V392.255C559.91 392.838 559.762 393.417 559.456 393.916C559.149 394.416 558.699 394.814 558.161 395.058L557.25 395.59M557.126 348.733V317.591L558.037 317.059C559.218 316.384 559.736 316.65 559.756 317.939V345.378C559.795 345.963 559.653 346.545 559.35 347.049C559.047 347.553 558.596 347.955 558.058 348.201L557.146 348.733M557.291 306.44L545.919 312.885L546.209 412.9L557.519 406.455C566.965 401.053 570.901 394.526 570.88 384.52V358.78C570.88 351.352 567.959 349.859 562.594 351.946V350.513C565.211 348.73 567.339 346.333 568.785 343.536C570.231 340.74 570.951 337.632 570.88 334.492V313.069C570.88 303.064 566.882 301.038 557.436 306.44" fill="#683522"/>
<path d="M586.601 351.803V347.567C586.829 335.556 587.015 324.876 587.16 312.947L588.569 312.149C588.817 323.873 589.066 334.288 589.377 345.992V350.084L586.456 351.762M596.067 284.239L579.537 293.713L574.918 396.511L585.959 390.229L586.394 362.77L589.687 360.888L590.288 387.753L601.329 381.451L596.171 284.198" fill="#683522"/>
<path d="M631.181 264.27L621.28 269.917L621.59 291.831C621.818 304.681 623.185 323.751 623.952 333.327L622.502 334.145L616.805 272.454L605.288 279.043L605.578 379.058L615.48 373.411L615.044 350.903C614.796 335.414 613.553 319.659 612.787 309.98L614.237 309.162L619.954 370.832L631.471 364.264L631.181 264.249" fill="#683522"/>
<path d="M662.979 246.14L652.208 252.278L647.671 294.081L646.263 294.879C647.029 286.899 647.837 278.346 647.816 270.653V254.795L637.066 260.974L637.356 360.99L648.044 354.851L647.92 312.68L648.521 308.588L649.826 307.831C649.826 315.402 650.219 323.975 651.234 335.393L652.726 352.13L663.684 345.889L657.014 286.551L662.959 246.099" fill="#683522"/>
</g>
</svg>
