<svg width="1068" height="576" viewBox="0 0 1068 576" fill="none" xmlns="http://www.w3.org/2000/svg">
<g clip-path="url(#clip0_1211_4659)">
<rect width="1068" height="576" fill="#121426"/>
<g filter="url(#filter0_d_1211_4659)">
<path d="M68.2799 393.435L69.666 393.632L69.6676 393.62L68.2799 393.435ZM63.5448 426.762L62.1587 426.565L62.1571 426.577L63.5448 426.762ZM69.3726 426.762L67.9869 426.563L67.9858 426.57L67.9849 426.577L69.3726 426.762ZM71.1027 414.743V413.343H69.8898L69.717 414.543L71.1027 414.743ZM83.0314 414.743L84.4177 414.938L84.6426 413.343H83.0314V414.743ZM81.1192 428.31L82.5053 428.507L82.5055 428.506L81.1192 428.31ZM50.6145 428.31L52.0006 428.507L52.0009 428.504L50.6145 428.31ZM55.7138 391.887L54.3276 391.69L54.3273 391.693L55.7138 391.887ZM86.2185 391.887L87.6044 392.085L87.6046 392.083L86.2185 391.887ZM84.6705 402.723V404.123H85.8847L86.0564 402.921L84.6705 402.723ZM72.7418 402.723L71.3548 402.532L71.1365 404.123H72.7418V402.723ZM74.0166 393.435L75.4036 393.625L75.4043 393.62L74.0166 393.435ZM66.8938 393.238L62.1587 426.565L64.9309 426.959L69.666 393.632L66.8938 393.238ZM62.1571 426.577C62.0644 427.272 61.9971 427.915 61.9954 428.48C61.9938 429.031 62.0519 429.638 62.3071 430.193C62.5908 430.81 63.0672 431.253 63.6829 431.511C64.2389 431.744 64.8586 431.805 65.4571 431.805V429.005C65.0083 429.005 64.8198 428.952 64.7641 428.928C64.7482 428.922 64.7689 428.928 64.8007 428.958C64.8335 428.989 64.8486 429.018 64.8509 429.023C64.851 429.023 64.8469 429.014 64.8409 428.993C64.8349 428.972 64.8274 428.94 64.8202 428.895C64.8055 428.803 64.7949 428.671 64.7954 428.488C64.7966 428.113 64.8431 427.618 64.9325 426.947L62.1571 426.577ZM65.4571 431.805H66.3676V429.005H65.4571V431.805ZM66.3676 431.805C67.6313 431.805 68.8426 431.541 69.6677 430.455C70.3583 429.546 70.5854 428.259 70.7603 426.947L67.9849 426.577C67.7955 427.997 67.6129 428.531 67.4384 428.761C67.3984 428.813 67.2894 429.005 66.3676 429.005V431.805ZM70.7583 426.962L72.4884 414.942L69.717 414.543L67.9869 426.563L70.7583 426.962ZM71.1027 416.143H83.0314V413.343H71.1027V416.143ZM81.6451 414.547L79.7329 428.115L82.5055 428.506L84.4177 414.938L81.6451 414.547ZM79.733 428.114C78.9617 433.558 77.8642 436.66 76.028 438.467C74.2414 440.226 71.4712 441.024 66.5498 441.024V443.824C71.6448 443.824 75.3853 443.029 77.9923 440.463C80.5496 437.945 81.7286 433.989 82.5053 428.507L79.733 428.114ZM66.5498 441.024H61.2683V443.824H66.5498V441.024ZM61.2683 441.024C56.2651 441.024 53.8877 440.192 52.729 438.631C52.1372 437.833 51.7448 436.697 51.6132 435.016C51.4812 433.33 51.6192 431.199 52.0006 428.507L49.2283 428.114C48.8357 430.885 48.6664 433.25 48.8218 435.235C48.9776 437.225 49.4674 438.934 50.4805 440.299C52.5316 443.063 56.2551 443.824 61.2683 443.824V441.024ZM52.0009 428.504L57.1002 392.081L54.3273 391.693L49.228 428.116L52.0009 428.504ZM57.0999 392.083C57.8703 386.645 58.9889 383.544 60.8453 381.735C62.656 379.97 65.4537 379.173 70.3742 379.173V376.373C65.2783 376.373 61.5197 377.168 58.8913 379.729C56.3086 382.246 55.1053 386.201 54.3276 391.69L57.0999 392.083ZM70.3742 379.173H75.6556V376.373H70.3742V379.173ZM75.6556 379.173C80.6612 379.173 83.0079 380.006 84.1438 381.559C84.7259 382.354 85.1094 383.49 85.2334 385.174C85.3578 386.863 85.214 388.996 84.8323 391.69L87.6046 392.083C87.9969 389.314 88.1719 386.951 88.0259 384.969C87.8796 382.982 87.4037 381.272 86.4036 379.905C84.3753 377.133 80.6666 376.373 75.6556 376.373V379.173ZM84.8325 391.689L83.2845 402.525L86.0564 402.921L87.6044 392.085L84.8325 391.689ZM84.6705 401.323H72.7418V404.123H84.6705V401.323ZM74.1288 402.913L75.4036 393.625L72.6296 393.244L71.3548 402.532L74.1288 402.913ZM75.4043 393.62C75.4958 392.934 75.5684 392.295 75.5785 391.739C75.5884 391.197 75.5447 390.586 75.298 390.025C75.02 389.393 74.5375 388.942 73.9106 388.683C73.3497 388.452 72.7188 388.392 72.1043 388.392V391.192C72.5826 391.192 72.7826 391.247 72.8421 391.271C72.8584 391.278 72.8334 391.27 72.7965 391.235C72.7582 391.198 72.7396 391.163 72.7351 391.153C72.7334 391.149 72.7482 391.182 72.7612 391.275C72.7742 391.368 72.7824 391.501 72.779 391.688C72.7721 392.07 72.7195 392.57 72.6289 393.25L75.4043 393.62ZM72.1043 388.392H71.1938V391.192H72.1043V388.392ZM71.1938 388.392C69.9559 388.392 68.7689 388.667 67.9626 389.756C67.2946 390.659 67.0674 391.935 66.8922 393.25L69.6676 393.62C69.8566 392.203 70.0392 391.657 70.2134 391.422C70.2495 391.373 70.3372 391.192 71.1938 391.192V388.392ZM89.4923 428.31L90.8785 428.507L90.8788 428.504L89.4923 428.31ZM94.5916 391.887L93.2054 391.69L93.2051 391.693L94.5916 391.887ZM125.916 391.887L127.302 392.084L127.302 392.083L125.916 391.887ZM120.725 428.31L119.339 428.113L119.339 428.114L120.725 428.31ZM108.25 426.762L106.864 426.569L106.863 426.577L108.25 426.762ZM112.894 393.435L114.281 393.628L114.282 393.62L112.894 393.435ZM107.158 393.435L108.544 393.632L108.545 393.62L107.158 393.435ZM102.423 426.762L101.037 426.565L101.035 426.577L102.423 426.762ZM90.8788 428.504L95.9781 392.081L93.2051 391.693L88.1058 428.116L90.8788 428.504ZM95.9778 392.083C96.7481 386.645 97.8668 383.544 99.7232 381.735C101.534 379.97 104.332 379.173 109.252 379.173V376.373C104.156 376.373 100.398 377.168 97.7692 379.729C95.1864 382.246 93.9831 386.201 93.2054 391.69L95.9778 392.083ZM109.252 379.173H115.262V376.373H109.252V379.173ZM115.262 379.173C120.265 379.173 122.643 380.005 123.801 381.566C124.393 382.364 124.785 383.5 124.917 385.181C125.049 386.867 124.911 388.998 124.53 391.69L127.302 392.083C127.695 389.312 127.864 386.947 127.709 384.962C127.553 382.972 127.063 381.263 126.05 379.898C123.999 377.134 120.275 376.373 115.262 376.373V379.173ZM124.53 391.689L119.339 428.113L122.111 428.508L127.302 392.084L124.53 391.689ZM119.339 428.114C118.568 433.558 117.471 436.66 115.634 438.467C113.848 440.226 111.078 441.024 106.156 441.024V443.824C111.251 443.824 114.992 443.029 117.599 440.463C120.156 437.945 121.335 433.989 122.112 428.507L119.339 428.114ZM106.156 441.024H100.146V443.824H106.156V441.024ZM100.146 441.024C95.1429 441.024 92.7655 440.192 91.6068 438.631C91.015 437.833 90.6227 436.697 90.4911 435.016C90.3591 433.33 90.497 431.199 90.8785 428.507L88.1062 428.114C87.7136 430.885 87.5442 433.25 87.6996 435.235C87.8554 437.225 88.3452 438.934 89.3583 440.299C91.4095 443.063 95.133 443.824 100.146 443.824V441.024ZM109.637 426.956L114.281 393.628L111.508 393.242L106.864 426.569L109.637 426.956ZM114.282 393.62C114.374 392.934 114.446 392.295 114.456 391.739C114.466 391.197 114.423 390.586 114.176 390.025C113.898 389.393 113.415 388.942 112.788 388.683C112.228 388.452 111.597 388.392 110.982 388.392V391.192C111.46 391.192 111.66 391.247 111.72 391.271C111.736 391.278 111.711 391.27 111.674 391.235C111.636 391.198 111.617 391.163 111.613 391.153C111.611 391.149 111.626 391.182 111.639 391.275C111.652 391.368 111.66 391.501 111.657 391.688C111.65 392.07 111.597 392.57 111.507 393.25L114.282 393.62ZM110.982 388.392H110.072V391.192H110.982V388.392ZM110.072 388.392C108.834 388.392 107.647 388.667 106.84 389.756C106.172 390.659 105.945 391.935 105.77 393.25L108.545 393.62C108.734 392.203 108.917 391.657 109.091 391.422C109.127 391.373 109.215 391.192 110.072 391.192V388.392ZM105.772 393.238L101.037 426.565L103.809 426.959L108.544 393.632L105.772 393.238ZM101.035 426.577C100.942 427.272 100.875 427.915 100.873 428.48C100.872 429.031 100.93 429.638 101.185 430.193C101.469 430.81 101.945 431.253 102.561 431.511C103.117 431.744 103.736 431.805 104.335 431.805V429.005C103.886 429.005 103.698 428.952 103.642 428.928C103.626 428.922 103.647 428.928 103.679 428.958C103.711 428.989 103.726 429.018 103.729 429.023C103.729 429.023 103.725 429.014 103.719 428.993C103.713 428.972 103.705 428.94 103.698 428.895C103.683 428.803 103.673 428.671 103.673 428.488C103.674 428.113 103.721 427.618 103.81 426.947L101.035 426.577ZM104.335 431.805H105.245V429.005H104.335V431.805ZM105.245 431.805C106.509 431.805 107.72 431.541 108.546 430.455C109.236 429.546 109.463 428.259 109.638 426.947L106.863 426.577C106.673 427.997 106.491 428.531 106.316 428.761C106.276 428.813 106.167 429.005 105.245 429.005V431.805ZM161.496 413.741L162.842 414.127L162.844 414.12L162.846 414.112L161.496 413.741ZM153.392 441.969V443.369H154.447L154.738 442.355L153.392 441.969ZM144.377 441.969L142.977 441.978L142.986 443.369H144.377V441.969ZM144.195 413.741H142.795L142.795 413.75L144.195 413.741ZM144.377 399.718L145.777 399.745L142.988 399.548L144.377 399.718ZM142.647 413.741L144.034 413.933L144.035 413.926L144.036 413.918L142.647 413.741ZM138.732 441.969V443.369H139.951L140.118 442.161L138.732 441.969ZM127.622 441.969L126.236 441.775L126.013 443.369H127.622V441.969ZM136.546 378.228V376.828H135.329L135.16 378.034L136.546 378.228ZM154.03 378.228L155.429 378.243L155.445 376.828H154.03V378.228ZM153.756 402.905L152.356 402.889L152.356 402.897V402.905H153.756ZM153.119 413.741L151.723 413.639L154.486 414.041L153.119 413.741ZM155.486 402.905L156.838 403.27L156.838 403.269L155.486 402.905ZM162.134 378.228V376.828H161.061L160.782 377.864L162.134 378.228ZM180.619 378.228L182.005 378.422L182.228 376.828H180.619V378.228ZM171.695 441.969V443.369H172.913L173.081 442.163L171.695 441.969ZM159.22 441.969L157.833 441.777L157.612 443.369H159.22V441.969ZM163.135 413.741L161.751 413.535L161.749 413.549L163.135 413.741ZM165.412 399.445L166.79 399.693L164.067 399.057L165.412 399.445ZM160.151 413.355L152.046 441.583L154.738 442.355L162.842 414.127L160.151 413.355ZM153.392 440.569H144.377V443.369H153.392V440.569ZM145.777 441.96L145.595 413.732L142.795 413.75L142.977 441.978L145.777 441.96ZM145.595 413.741C145.595 410.023 145.686 404.389 145.777 399.745L142.978 399.69C142.887 404.334 142.795 409.992 142.795 413.741H145.595ZM142.988 399.548C142.441 404.014 141.804 409.289 141.258 413.564L144.036 413.918C144.583 409.634 145.221 404.346 145.767 399.888L142.988 399.548ZM141.26 413.549L137.345 441.777L140.118 442.161L144.034 413.933L141.26 413.549ZM138.732 440.569H127.622V443.369H138.732V440.569ZM129.009 442.163L137.933 378.422L135.16 378.034L126.236 441.775L129.009 442.163ZM136.546 379.628H154.03V376.828H136.546V379.628ZM152.63 378.212L152.356 402.889L155.156 402.92L155.429 378.243L152.63 378.212ZM152.356 402.905C152.356 406.206 152 409.853 151.723 413.639L154.515 413.843C154.785 410.162 155.156 406.342 155.156 402.905H152.356ZM154.486 414.041C155.327 410.212 155.937 406.602 156.838 403.27L154.135 402.54C153.214 405.946 152.55 409.803 151.752 413.441L154.486 414.041ZM156.838 403.269L163.486 378.592L160.782 377.864L154.135 402.541L156.838 403.269ZM162.134 379.628H180.619V376.828H162.134V379.628ZM179.232 378.034L170.308 441.775L173.081 442.163L182.005 378.422L179.232 378.034ZM171.695 440.569H159.22V443.369H171.695V440.569ZM160.607 442.161L164.522 413.933L161.749 413.549L157.833 441.777L160.607 442.161ZM164.52 413.947C165.158 409.664 165.975 404.221 166.79 399.693L164.034 399.197C163.21 403.774 162.388 409.258 161.751 413.535L164.52 413.947ZM164.067 399.057C162.698 403.8 161.14 409.757 160.146 413.37L162.846 414.112C163.856 410.44 165.394 404.559 166.757 399.833L164.067 399.057ZM180.908 441.969L179.522 441.775L179.299 443.369H180.908V441.969ZM189.832 378.228V376.828H188.614L188.446 378.034L189.832 378.228ZM202.58 378.228L203.967 378.422L204.19 376.828H202.58V378.228ZM193.656 441.969V443.369H194.874L195.043 442.163L193.656 441.969ZM182.295 442.163L191.218 378.422L188.446 378.034L179.522 441.775L182.295 442.163ZM189.832 379.628H202.58V376.828H189.832V379.628ZM201.194 378.034L192.27 441.775L195.043 442.163L203.967 378.422L201.194 378.034ZM193.656 440.569H180.908V443.369H193.656V440.569ZM222.102 393.435L223.488 393.632L223.489 393.62L222.102 393.435ZM217.367 426.762L215.981 426.565L215.979 426.577L217.367 426.762ZM223.194 426.762L221.809 426.563L221.808 426.57L221.807 426.577L223.194 426.762ZM224.925 414.743V413.343H223.712L223.539 414.543L224.925 414.743ZM236.853 414.743L238.24 414.938L238.464 413.343H236.853V414.743ZM234.941 428.31L236.327 428.507L236.327 428.506L234.941 428.31ZM204.436 428.31L205.822 428.507L205.823 428.504L204.436 428.31ZM209.536 391.887L208.149 391.69L208.149 391.693L209.536 391.887ZM240.04 391.887L241.426 392.085L241.426 392.083L240.04 391.887ZM238.492 402.723V404.123H239.707L239.878 402.921L238.492 402.723ZM226.564 402.723L225.177 402.532L224.958 404.123H226.564V402.723ZM227.838 393.435L229.225 393.625L229.226 393.62L227.838 393.435ZM220.716 393.238L215.981 426.565L218.753 426.959L223.488 393.632L220.716 393.238ZM215.979 426.577C215.886 427.272 215.819 427.915 215.817 428.48C215.816 429.031 215.874 429.638 216.129 430.193C216.413 430.81 216.889 431.253 217.505 431.511C218.061 431.744 218.68 431.805 219.279 431.805V429.005C218.83 429.005 218.642 428.952 218.586 428.928C218.57 428.922 218.591 428.928 218.623 428.958C218.655 428.989 218.67 429.018 218.673 429.023C218.673 429.023 218.669 429.014 218.663 428.993C218.657 428.972 218.649 428.94 218.642 428.895C218.627 428.803 218.617 428.671 218.617 428.488C218.618 428.113 218.665 427.618 218.754 426.947L215.979 426.577ZM219.279 431.805H220.189V429.005H219.279V431.805ZM220.189 431.805C221.453 431.805 222.664 431.541 223.49 430.455C224.18 429.546 224.407 428.259 224.582 426.947L221.807 426.577C221.617 427.997 221.435 428.531 221.26 428.761C221.22 428.813 221.111 429.005 220.189 429.005V431.805ZM224.58 426.962L226.31 414.942L223.539 414.543L221.809 426.563L224.58 426.962ZM224.925 416.143H236.853V413.343H224.925V416.143ZM235.467 414.547L233.555 428.115L236.327 428.506L238.24 414.938L235.467 414.547ZM233.555 428.114C232.784 433.558 231.686 436.66 229.85 438.467C228.063 440.226 225.293 441.024 220.372 441.024V443.824C225.467 443.824 229.207 443.029 231.814 440.463C234.371 437.945 235.55 433.989 236.327 428.507L233.555 428.114ZM220.372 441.024H215.09V443.824H220.372V441.024ZM215.09 441.024C210.087 441.024 207.71 440.192 206.551 438.631C205.959 437.833 205.567 436.697 205.435 435.016C205.303 433.33 205.441 431.199 205.822 428.507L203.05 428.114C202.658 430.885 202.488 433.25 202.644 435.235C202.799 437.225 203.289 438.934 204.302 440.299C206.353 443.063 210.077 443.824 215.09 443.824V441.024ZM205.823 428.504L210.922 392.081L208.149 391.693L203.05 428.116L205.823 428.504ZM210.922 392.083C211.692 386.645 212.811 383.544 214.667 381.735C216.478 379.97 219.276 379.173 224.196 379.173V376.373C219.1 376.373 215.342 377.168 212.713 379.729C210.13 382.246 208.927 386.201 208.149 391.69L210.922 392.083ZM224.196 379.173H229.477V376.373H224.196V379.173ZM229.477 379.173C234.483 379.173 236.83 380.006 237.966 381.559C238.548 382.354 238.931 383.49 239.055 385.174C239.18 386.863 239.036 388.996 238.654 391.69L241.426 392.083C241.819 389.314 241.994 386.951 241.848 384.969C241.701 382.982 241.226 381.272 240.225 379.905C238.197 377.133 234.488 376.373 229.477 376.373V379.173ZM238.654 391.689L237.106 402.525L239.878 402.921L241.426 392.085L238.654 391.689ZM238.492 401.323H226.564V404.123H238.492V401.323ZM227.951 402.913L229.225 393.625L226.451 393.244L225.177 402.532L227.951 402.913ZM229.226 393.62C229.318 392.934 229.39 392.295 229.4 391.739C229.41 391.197 229.367 390.586 229.12 390.025C228.842 389.393 228.359 388.942 227.732 388.683C227.172 388.452 226.541 388.392 225.926 388.392V391.192C226.404 391.192 226.604 391.247 226.664 391.271C226.68 391.278 226.655 391.27 226.618 391.235C226.58 391.198 226.561 391.163 226.557 391.153C226.555 391.149 226.57 391.182 226.583 391.275C226.596 391.368 226.604 391.501 226.601 391.688C226.594 392.07 226.541 392.57 226.451 393.25L229.226 393.62ZM225.926 388.392H225.016V391.192H225.926V388.392ZM225.016 388.392C223.778 388.392 222.591 388.667 221.784 389.756C221.116 390.659 220.889 391.935 220.714 393.25L223.489 393.62C223.678 392.203 223.861 391.657 224.035 391.422C224.071 391.373 224.159 391.192 225.016 391.192V388.392ZM275.367 423.393L273.981 423.197L273.98 423.205L275.367 423.393ZM274.365 430.769L272.978 430.58L272.977 430.584L274.365 430.769ZM274.456 441.969V443.369H276.312L275.802 441.585L274.456 441.969ZM261.344 441.969L260.04 442.479L260.388 443.369H261.344V441.969ZM261.435 432.044L260.048 431.852L260.048 431.855L261.435 432.044ZM262.983 420.843L261.599 420.634L261.597 420.643L261.596 420.652L262.983 420.843ZM257.975 416.108V414.708H256.758L256.588 415.913L257.975 416.108ZM254.332 441.969V443.369H255.549L255.719 442.164L254.332 441.969ZM241.584 441.969L240.198 441.775L239.974 443.369H241.584V441.969ZM250.508 378.228V376.828H249.29L249.121 378.034L250.508 378.228ZM279.738 392.342L278.35 392.157L278.35 392.159L279.738 392.342ZM279.1 397.168L277.712 396.985L277.712 396.988L279.1 397.168ZM271.633 410.19L271.183 408.864L267.488 410.12L271.139 411.499L271.633 410.19ZM265.897 400.446L264.51 400.254L264.509 400.261L265.897 400.446ZM266.807 393.89L268.194 394.083L268.195 394.075L266.807 393.89ZM261.526 390.248V388.848H260.306L260.139 390.056L261.526 390.248ZM259.614 404.089L258.227 403.897L258.007 405.489H259.614V404.089ZM273.98 423.205L272.978 430.58L275.752 430.957L276.754 423.582L273.98 423.205ZM272.977 430.584C272.431 434.679 272.111 438.858 273.11 442.354L275.802 441.585C274.98 438.706 275.206 435.054 275.753 430.954L272.977 430.584ZM274.456 440.569H261.344V443.369H274.456V440.569ZM262.648 441.459C262.347 440.691 262.221 439.452 262.276 437.77C262.331 436.127 262.55 434.228 262.822 432.233L260.048 431.855C259.773 433.866 259.537 435.883 259.478 437.677C259.42 439.433 259.521 441.153 260.04 442.479L262.648 441.459ZM262.822 432.235L264.37 421.035L261.596 420.652L260.048 431.852L262.822 432.235ZM264.367 421.053C264.597 419.534 264.673 417.969 264.086 416.744C263.767 416.078 263.265 415.536 262.573 415.181C261.907 414.838 261.144 414.708 260.342 414.708V417.508C260.86 417.508 261.145 417.595 261.293 417.671C261.414 417.733 261.493 417.812 261.561 417.954C261.748 418.345 261.824 419.148 261.599 420.634L264.367 421.053ZM260.342 414.708H257.975V417.508H260.342V414.708ZM256.588 415.913L252.946 441.774L255.719 442.164L259.361 416.304L256.588 415.913ZM254.332 440.569H241.584V443.369H254.332V440.569ZM242.971 442.163L251.894 378.422L249.121 378.034L240.198 441.775L242.971 442.163ZM250.508 379.628H269.084V376.828H250.508V379.628ZM269.084 379.628C274.138 379.628 276.482 380.462 277.617 382.014C278.2 382.81 278.584 383.947 278.713 385.634C278.843 387.325 278.71 389.46 278.35 392.157L281.125 392.527C281.494 389.761 281.657 387.4 281.505 385.42C281.353 383.436 280.877 381.727 279.877 380.361C277.848 377.587 274.138 376.828 269.084 376.828V379.628ZM278.35 392.159L277.712 396.985L280.488 397.351L281.126 392.525L278.35 392.159ZM277.712 396.988C277.218 400.807 276.516 403.46 275.477 405.317C274.478 407.102 273.141 408.198 271.183 408.864L272.084 411.515C274.679 410.633 276.574 409.089 277.92 406.685C279.226 404.353 279.981 401.269 280.489 397.348L277.712 396.988ZM271.139 411.499C271.988 411.82 272.6 412.238 273.053 412.748C273.507 413.258 273.858 413.924 274.092 414.822C274.575 416.675 274.524 419.351 273.981 423.197L276.753 423.589C277.303 419.695 277.434 416.544 276.801 414.116C276.478 412.874 275.946 411.788 275.145 410.887C274.343 409.985 273.328 409.333 272.128 408.88L271.139 411.499ZM267.283 400.639L268.194 394.083L265.421 393.697L264.51 400.254L267.283 400.639ZM268.195 394.075C268.288 393.38 268.355 392.737 268.357 392.173C268.358 391.621 268.3 391.014 268.045 390.459C267.761 389.843 267.285 389.399 266.669 389.141C266.113 388.908 265.494 388.848 264.895 388.848V391.648C265.344 391.648 265.532 391.701 265.588 391.724C265.604 391.731 265.583 391.724 265.551 391.694C265.519 391.663 265.504 391.634 265.501 391.63C265.501 391.629 265.505 391.638 265.511 391.659C265.517 391.68 265.525 391.712 265.532 391.757C265.547 391.85 265.557 391.981 265.557 392.164C265.556 392.539 265.509 393.034 265.42 393.705L268.195 394.075ZM264.895 388.848H261.526V391.648H264.895V388.848ZM260.139 390.056L258.227 403.897L261 404.28L262.913 390.439L260.139 390.056ZM259.614 405.489H262.983V402.689H259.614V405.489ZM262.983 405.489C264.221 405.489 265.408 405.214 266.214 404.125C266.882 403.222 267.109 401.946 267.284 400.631L264.509 400.261C264.32 401.678 264.137 402.224 263.963 402.459C263.927 402.508 263.839 402.689 262.983 402.689V405.489ZM303.114 378.228L304.501 378.423L304.725 376.828H303.114V378.228ZM296.285 426.762L294.898 426.567L294.897 426.577L296.285 426.762ZM302.021 426.762L300.635 426.567L300.634 426.577L302.021 426.762ZM308.851 378.228V376.828H307.634L307.465 378.033L308.851 378.228ZM320.871 378.228L322.257 378.422L322.48 376.828H320.871V378.228ZM313.859 428.31L315.245 428.507L315.246 428.504L313.859 428.31ZM283.354 428.31L284.741 428.507L284.741 428.504L283.354 428.31ZM290.366 378.228V376.828H289.148L288.979 378.034L290.366 378.228ZM301.728 378.033L294.898 426.567L297.671 426.957L304.501 378.423L301.728 378.033ZM294.897 426.577C294.806 427.263 294.733 427.902 294.723 428.458C294.713 429 294.757 429.611 295.003 430.172C295.281 430.804 295.764 431.255 296.391 431.514C296.952 431.745 297.583 431.805 298.197 431.805V429.005C297.719 429.005 297.519 428.95 297.459 428.926C297.443 428.919 297.468 428.927 297.505 428.962C297.543 428.999 297.562 429.034 297.566 429.044C297.568 429.048 297.553 429.015 297.54 428.922C297.527 428.829 297.519 428.696 297.522 428.509C297.529 428.127 297.582 427.627 297.672 426.947L294.897 426.577ZM298.197 431.805H299.108V429.005H298.197V431.805ZM299.108 431.805C300.345 431.805 301.532 431.53 302.339 430.441C303.007 429.538 303.234 428.262 303.409 426.947L300.634 426.577C300.445 427.994 300.262 428.54 300.088 428.775C300.052 428.824 299.964 429.005 299.108 429.005V431.805ZM303.408 426.957L310.237 378.423L307.465 378.033L300.635 426.567L303.408 426.957ZM308.851 379.628H320.871V376.828H308.851V379.628ZM319.484 378.034L312.473 428.116L315.246 428.504L322.257 378.422L319.484 378.034ZM312.473 428.114C311.702 433.558 310.604 436.66 308.768 438.467C306.981 440.226 304.211 441.024 299.29 441.024V443.824C304.385 443.824 308.125 443.029 310.732 440.463C313.29 437.945 314.469 433.989 315.245 428.507L312.473 428.114ZM299.29 441.024H294.008V443.824H299.29V441.024ZM294.008 441.024C289.005 441.024 286.628 440.192 285.469 438.631C284.877 437.833 284.485 436.697 284.353 435.016C284.221 433.33 284.359 431.199 284.741 428.507L281.968 428.114C281.576 430.885 281.406 433.25 281.562 435.235C281.718 437.225 282.207 438.934 283.22 440.299C285.272 443.063 288.995 443.824 294.008 443.824V441.024ZM284.741 428.504L291.752 378.422L288.979 378.034L281.968 428.116L284.741 428.504ZM290.366 379.628H303.114V376.828H290.366V379.628ZM338.703 441.969L337.306 442.057L337.388 443.369H338.703V441.969ZM337.155 417.292L335.758 417.378L335.758 417.38L337.155 417.292ZM336.791 404.18L338.191 404.208L335.401 404.013L336.791 404.18ZM335.243 417.292L333.857 417.094L333.857 417.098L335.243 417.292ZM331.783 441.969V443.369H333L333.169 442.164L331.783 441.969ZM320.856 441.969L319.469 441.775L319.246 443.369H320.856V441.969ZM329.779 378.228V376.828H328.562L328.393 378.034L329.779 378.228ZM345.077 378.228L346.476 378.163L346.414 376.828H345.077V378.228ZM346.079 399.809L347.478 399.751L347.478 399.744L346.079 399.809ZM346.261 412.921L344.861 412.893L347.651 413.088L346.261 412.921ZM347.718 399.809L349.103 400.011L349.105 400.002L347.718 399.809ZM350.723 378.228V376.828H349.504L349.336 378.035L350.723 378.228ZM361.741 378.228L363.128 378.422L363.351 376.828H361.741V378.228ZM352.817 441.969V443.369H354.035L354.204 442.163L352.817 441.969ZM340.101 441.881L338.553 417.205L335.758 417.38L337.306 442.057L340.101 441.881ZM338.553 417.207C338.28 412.759 338.101 408.614 338.191 404.208L335.391 404.151C335.299 408.669 335.484 412.902 335.758 417.378L338.553 417.207ZM335.401 404.013C334.847 408.626 334.492 412.647 333.857 417.094L336.629 417.49C337.268 413.014 337.642 408.84 338.181 404.347L335.401 404.013ZM333.857 417.098L330.396 441.775L333.169 442.164L336.629 417.487L333.857 417.098ZM331.783 440.569H320.856V443.369H331.783V440.569ZM322.242 442.163L331.166 378.422L328.393 378.034L319.469 441.775L322.242 442.163ZM329.779 379.628H345.077V376.828H329.779V379.628ZM343.679 378.293L344.681 399.874L347.478 399.744L346.476 378.163L343.679 378.293ZM344.68 399.867C344.862 404.219 344.952 408.469 344.861 412.893L347.661 412.95C347.753 408.45 347.661 404.14 347.478 399.751L344.68 399.867ZM347.651 413.088C348.213 408.41 348.465 404.387 349.103 400.011L346.333 399.607C345.696 403.973 345.402 408.327 344.871 412.755L347.651 413.088ZM349.105 400.002L352.11 378.421L349.336 378.035L346.331 399.616L349.105 400.002ZM350.723 379.628H361.741V376.828H350.723V379.628ZM360.355 378.034L351.431 441.775L354.204 442.163L363.128 378.422L360.355 378.034ZM352.817 440.569H338.703V443.369H352.817V440.569ZM381.99 390.248V388.848H380.769L380.603 390.057L381.99 390.248ZM380.26 402.814L378.873 402.623L378.654 404.214H380.26V402.814ZM389.092 402.814L390.478 403.013L390.708 401.414H389.092V402.814ZM387.362 414.834V416.234H388.575L388.748 415.033L387.362 414.834ZM378.529 414.834V413.434H377.31L377.143 414.641L378.529 414.834ZM376.435 429.949L375.048 429.757L374.828 431.349H376.435V429.949ZM387.544 429.949L388.931 430.139L389.148 428.549H387.544V429.949ZM385.905 441.969V443.369H387.127L387.292 442.158L385.905 441.969ZM362.048 441.969L360.661 441.775L360.438 443.369H362.048V441.969ZM370.972 378.228V376.828H369.754L369.585 378.034L370.972 378.228ZM394.829 378.228L396.215 378.427L396.445 376.828H394.829V378.228ZM393.099 390.248V391.648H394.312L394.485 390.447L393.099 390.248ZM380.603 390.057L378.873 402.623L381.646 403.005L383.377 390.439L380.603 390.057ZM380.26 404.214H389.092V401.414H380.26V404.214ZM387.706 402.614L385.976 414.634L388.748 415.033L390.478 403.013L387.706 402.614ZM387.362 413.434H378.529V416.234H387.362V413.434ZM377.143 414.641L375.048 429.757L377.822 430.141L379.916 415.026L377.143 414.641ZM376.435 431.349H387.544V428.549H376.435V431.349ZM386.157 429.76L384.518 441.78L387.292 442.158L388.931 430.139L386.157 429.76ZM385.905 440.569H362.048V443.369H385.905V440.569ZM363.434 442.163L372.358 378.422L369.585 378.034L360.661 441.775L363.434 442.163ZM370.972 379.628H394.829V376.828H370.972V379.628ZM393.443 378.028L391.713 390.048L394.485 390.447L396.215 378.427L393.443 378.028ZM393.099 388.848H381.99V391.648H393.099V388.848ZM412.928 426.762L411.541 426.571L411.54 426.577L412.928 426.762ZM413.292 424.122L411.906 423.92L411.905 423.93L413.292 424.122ZM406.918 412.466L405.953 413.48L405.962 413.49L405.972 413.499L406.918 412.466ZM399.997 394.072L401.386 394.249L401.386 394.246L399.997 394.072ZM430.502 391.887L431.889 392.076L431.89 392.072L430.502 391.887ZM429.409 399.9V401.3H430.631L430.796 400.089L429.409 399.9ZM417.48 399.9L416.092 399.724L415.892 401.3H417.48V399.9ZM418.3 393.435L416.912 393.25L416.911 393.259L418.3 393.435ZM412.745 393.162L411.361 392.956L411.359 392.966L411.358 392.977L412.745 393.162ZM412.563 394.527L411.176 394.342L411.174 394.354L412.563 394.527ZM418.846 406.274L417.884 407.29L417.889 407.295L418.846 406.274ZM425.858 424.668L424.469 424.491L424.469 424.494L425.858 424.668ZM425.403 428.31L426.792 428.484L426.792 428.484L425.403 428.31ZM395.171 428.31L396.557 428.507L396.558 428.503L395.171 428.31ZM396.537 418.476V417.076H395.318L395.15 418.283L396.537 418.476ZM408.466 418.476L409.852 418.674L410.08 417.076H408.466V418.476ZM407.282 426.762L405.896 426.564L405.894 426.577L407.282 426.762ZM414.314 426.954L414.679 424.313L411.905 423.93L411.541 426.571L414.314 426.954ZM414.677 424.323C415.073 421.6 414.818 419.563 413.59 417.535C412.45 415.651 410.496 413.843 407.863 411.433L405.972 413.499C408.712 416.006 410.309 417.522 411.195 418.985C411.993 420.303 412.239 421.635 411.906 423.92L414.677 424.323ZM407.883 411.452C405.083 408.787 403.239 406.676 402.185 404.191C401.144 401.734 400.812 398.752 401.386 394.249L398.608 393.895C397.999 398.681 398.304 402.209 399.607 405.284C400.899 408.33 403.107 410.773 405.953 413.48L407.883 411.452ZM401.386 394.246L401.66 392.06L398.881 391.713L398.608 393.899L401.386 394.246ZM401.66 392.06C402.337 386.637 403.459 383.543 405.329 381.74C407.163 379.971 410.009 379.173 414.931 379.173V376.373C409.836 376.373 406.035 377.168 403.385 379.724C400.77 382.246 399.569 386.209 398.881 391.713L401.66 392.06ZM414.931 379.173H419.939V376.373H414.931V379.173ZM419.939 379.173C424.944 379.173 427.265 380.006 428.39 381.555C428.969 382.351 429.35 383.49 429.479 385.178C429.607 386.869 429.474 389.005 429.114 391.702L431.89 392.072C432.259 389.305 432.421 386.945 432.271 384.966C432.12 382.983 431.648 381.275 430.656 379.909C428.639 377.133 424.95 376.373 419.939 376.373V379.173ZM429.115 391.698L428.022 399.711L430.796 400.089L431.889 392.076L429.115 391.698ZM429.409 398.5H417.48V401.3H429.409V398.5ZM418.869 400.076L419.689 393.611L416.911 393.259L416.092 399.724L418.869 400.076ZM419.688 393.62C419.78 392.925 419.848 392.282 419.849 391.717C419.851 391.166 419.793 390.559 419.538 390.004C419.254 389.387 418.778 388.944 418.162 388.686C417.606 388.453 416.986 388.392 416.388 388.392V391.192C416.837 391.192 417.025 391.245 417.081 391.269C417.097 391.275 417.076 391.269 417.044 391.239C417.011 391.208 416.996 391.179 416.994 391.174C416.994 391.174 416.998 391.183 417.004 391.204C417.01 391.225 417.017 391.257 417.025 391.302C417.039 391.394 417.05 391.526 417.049 391.709C417.048 392.084 417.002 392.579 416.912 393.25L419.688 393.62ZM416.388 388.392H415.659V391.192H416.388V388.392ZM415.659 388.392C414.4 388.392 413.212 388.654 412.408 389.704C412.051 390.17 411.842 390.704 411.698 391.224C411.554 391.743 411.453 392.333 411.361 392.956L414.13 393.367C414.22 392.76 414.301 392.315 414.396 391.972C414.491 391.629 414.578 391.475 414.631 391.406C414.646 391.386 414.733 391.192 415.659 391.192V388.392ZM411.358 392.977L411.176 394.342L413.951 394.712L414.133 393.347L411.358 392.977ZM411.174 394.354C410.829 397.115 411.112 399.159 412.316 401.185C413.44 403.074 415.342 404.882 417.884 407.29L419.809 405.258C417.161 402.749 415.603 401.233 414.723 399.754C413.924 398.41 413.66 397.04 413.953 394.701L411.174 394.354ZM417.889 407.295C420.782 410.007 422.643 412.116 423.693 414.585C424.732 417.025 425.044 419.981 424.469 424.491L427.247 424.845C427.856 420.067 427.576 416.557 426.27 413.489C424.976 410.448 422.739 408.004 419.804 405.253L417.889 407.295ZM424.469 424.494L424.013 428.137L426.792 428.484L427.247 424.842L424.469 424.494ZM424.013 428.137C423.336 433.559 422.214 436.656 420.353 438.46C418.53 440.227 415.707 441.024 410.833 441.024V443.824C415.885 443.824 419.664 443.028 422.302 440.47C424.903 437.949 426.104 433.988 426.792 428.484L424.013 428.137ZM410.833 441.024H405.734V443.824H410.833V441.024ZM405.734 441.024C400.779 441.024 398.425 440.193 397.277 438.635C396.689 437.837 396.299 436.699 396.169 435.017C396.038 433.331 396.176 431.199 396.557 428.507L393.785 428.114C393.392 430.885 393.223 433.249 393.377 435.234C393.531 437.223 394.017 438.931 395.023 440.295C397.061 443.062 400.763 443.824 405.734 443.824V441.024ZM396.558 428.503L397.924 418.669L395.15 418.283L393.784 428.118L396.558 428.503ZM396.537 419.876H408.466V417.076H396.537V419.876ZM407.08 418.278L405.896 426.564L408.668 426.96L409.852 418.674L407.08 418.278ZM405.894 426.577C405.803 427.263 405.73 427.902 405.72 428.458C405.71 429 405.754 429.611 406 430.172C406.278 430.804 406.761 431.255 407.388 431.514C407.949 431.745 408.58 431.805 409.194 431.805V429.005C408.716 429.005 408.516 428.95 408.456 428.926C408.44 428.919 408.465 428.927 408.502 428.962C408.54 428.999 408.559 429.034 408.563 429.044C408.565 429.048 408.55 429.015 408.537 428.922C408.524 428.829 408.516 428.696 408.519 428.509C408.526 428.127 408.579 427.627 408.67 426.947L405.894 426.577ZM409.194 431.805H409.923V429.005H409.194V431.805ZM409.923 431.805C411.161 431.805 412.349 431.531 413.178 430.469C413.884 429.564 414.137 428.287 414.315 426.947L411.54 426.577C411.354 427.969 411.152 428.514 410.97 428.747C410.911 428.823 410.779 429.005 409.923 429.005V431.805ZM437.442 441.969L436.055 441.776L435.833 443.369H437.442V441.969ZM439.536 426.944V425.544H438.318L438.149 426.751L439.536 426.944ZM452.193 426.944L453.58 427.138L453.802 425.544H452.193V426.944ZM450.099 441.969V443.369H451.317L451.485 442.162L450.099 441.969ZM454.014 393.708L452.627 393.523L452.626 393.524L454.014 393.708ZM454.196 392.342L452.812 392.137L452.81 392.147L452.809 392.157L454.196 392.342ZM448.915 392.342L447.53 392.137L447.528 392.15L448.915 392.342ZM447.731 400.902V402.302H448.951L449.118 401.093L447.731 400.902ZM436.531 400.902L435.146 400.7L434.913 402.302H436.531V400.902ZM437.988 390.885L439.373 391.087L439.375 391.079L439.376 391.071L437.988 390.885ZM466.216 390.885L467.6 391.096L467.6 391.095L466.216 390.885ZM465.579 395.074L466.962 395.287L466.963 395.284L465.579 395.074ZM451.92 420.206L453.302 420.429L453.304 420.416L451.92 420.206ZM451.465 423.029V424.429H452.657L452.847 423.252L451.465 423.029ZM441.266 423.029L439.876 422.86L439.686 424.429H441.266V423.029ZM441.63 420.024L440.244 419.828L440.242 419.842L440.241 419.855L441.63 420.024ZM438.828 442.162L440.923 427.138L438.149 426.751L436.055 441.776L438.828 442.162ZM439.536 428.344H452.193V425.544H439.536V428.344ZM450.807 426.751L448.712 441.776L451.485 442.162L453.58 427.138L450.807 426.751ZM450.099 440.569H437.442V443.369H450.099V440.569ZM455.402 393.893L455.584 392.527L452.809 392.157L452.627 393.523L455.402 393.893ZM455.581 392.547C455.673 391.925 455.747 391.337 455.761 390.815C455.774 390.308 455.737 389.727 455.507 389.187C455.25 388.581 454.795 388.132 454.191 387.87C453.65 387.634 453.046 387.573 452.466 387.573V390.373C452.889 390.373 453.047 390.425 453.075 390.437C453.076 390.438 453.043 390.423 453.001 390.382C452.959 390.339 452.938 390.299 452.931 390.284C452.929 390.279 452.971 390.387 452.962 390.741C452.953 391.082 452.902 391.529 452.812 392.137L455.581 392.547ZM452.466 387.573H451.647V390.373H452.466V387.573ZM451.647 387.573C450.438 387.573 449.298 387.857 448.532 388.915C447.91 389.774 447.702 390.976 447.53 392.137L450.3 392.547C450.39 391.942 450.471 391.492 450.565 391.144C450.66 390.795 450.746 390.631 450.801 390.556C450.809 390.544 450.853 390.373 451.647 390.373V387.573ZM447.528 392.15L446.344 400.71L449.118 401.093L450.302 392.534L447.528 392.15ZM447.731 399.502H436.531V402.302H447.731V399.502ZM437.916 401.103L439.373 391.087L436.603 390.684L435.146 400.7L437.916 401.103ZM439.376 391.071C440.056 385.993 441.065 383.147 442.737 381.503C444.363 379.904 446.903 379.173 451.465 379.173V376.373C446.739 376.373 443.223 377.098 440.774 379.506C438.372 381.868 437.286 385.579 436.6 390.699L439.376 391.071ZM451.465 379.173H456.473V376.373H451.465V379.173ZM456.473 379.173C461.069 379.173 463.215 379.938 464.248 381.336C464.776 382.051 465.133 383.083 465.244 384.634C465.355 386.19 465.213 388.166 464.832 390.675L467.6 391.095C467.994 388.505 468.17 386.292 468.037 384.434C467.903 382.57 467.451 380.961 466.5 379.673C464.574 377.064 461.074 376.373 456.473 376.373V379.173ZM464.832 390.674L464.195 394.863L466.963 395.284L467.6 391.096L464.832 390.674ZM464.195 394.86C463.116 401.852 460.287 405.338 457.45 408.395C454.59 411.476 451.387 414.391 450.536 419.996L453.304 420.416C454.001 415.823 456.489 413.547 459.502 410.3C462.539 407.028 465.765 403.047 466.962 395.287L464.195 394.86ZM450.538 419.983L450.083 422.806L452.847 423.252L453.302 420.429L450.538 419.983ZM451.465 421.629H441.266V424.429H451.465V421.629ZM442.656 423.197L443.02 420.192L440.241 419.855L439.876 422.86L442.656 423.197ZM443.017 420.22C444.013 413.157 446.525 409.912 449.071 406.837C451.714 403.645 454.526 400.51 455.402 393.892L452.626 393.524C451.863 399.29 449.531 401.891 446.915 405.051C444.202 408.327 441.342 412.048 440.244 419.828L443.017 420.22Z" fill="url(#paint0_linear_1211_4659)"/>
</g>
<path d="M53.3547 489.094L52.7007 493.671C52.4827 495.135 52.545 495.602 53.8218 495.602H54.5069C55.7837 495.602 55.9395 495.135 56.1574 493.671L58.6176 476.201H61.3581L58.8356 494.107C58.3996 497.253 57.5277 498.156 54.6315 498.156H53.1367C50.2405 498.156 49.6489 497.253 50.0848 494.107L50.7699 489.094H53.3547ZM69.2987 495.104C69.143 496.1 69.0184 496.972 69.143 498H66.7762C66.6828 497.657 66.6828 497.066 66.7762 496.163C66.3091 497.408 65.4683 498.156 63.9112 498.156H63.2884C61.3887 498.156 60.9528 497.377 61.2642 495.197L63.2884 480.81H65.7486L63.8801 494.232C63.7244 495.446 63.7555 495.882 64.8143 495.882H65.2814C66.3091 495.882 66.8074 495.135 66.9942 493.827L68.8004 480.81H71.2918L69.2987 495.104ZM77.088 494.17L77.1814 493.391C77.3683 491.896 77.0569 491.429 75.2195 490.028C73.0707 488.44 72.6348 487.412 72.9773 485.232L73.133 484.267C73.6001 481.464 74.2853 480.654 76.87 480.654H78.2402C80.7938 480.654 81.4167 481.464 80.9807 484.267L80.607 486.664H78.2714L78.5828 484.64C78.7696 483.363 78.6762 482.927 77.5863 482.927H77.0257C75.9046 482.927 75.7489 483.363 75.5309 484.64L75.4375 485.17C75.1884 486.633 75.5932 487.1 77.4306 488.471C79.5793 490.09 79.953 491.087 79.6728 493.298L79.517 494.543C79.1745 497.346 78.3337 498.156 75.7801 498.156H74.4098C71.8251 498.156 71.2957 497.346 71.6694 494.543L72.0431 491.834H74.3475L74.0361 494.17C73.8804 495.446 73.9116 495.882 75.0638 495.882H75.5932C76.7454 495.882 76.9323 495.446 77.088 494.17ZM82.5259 482.896L82.8061 480.81H84.0207L84.5501 477.073H87.0414L86.512 480.81H88.1625L87.8822 482.896H86.2006L84.6435 494.076C84.4566 495.54 84.3632 496.848 84.6435 498H81.9965C81.7785 497.284 81.903 495.945 82.0899 494.512L83.7092 482.896H82.5259ZM94.4317 498H91.9404L94.3383 480.81H96.6739L96.3313 483.177C96.8296 481.588 97.6704 480.654 98.9784 480.654H99.1963L98.8226 483.301H98.5735C97.0476 483.301 96.3313 484.235 96.0199 486.54L94.4317 498ZM104.312 494.17L104.561 492.145H106.897L106.585 494.543C106.211 497.346 105.402 498.156 102.848 498.156H101.478C98.8932 498.156 98.3327 497.346 98.7375 494.543L100.17 484.267C100.575 481.464 101.353 480.654 103.938 480.654H105.308C107.862 480.654 108.454 481.464 108.049 484.267L107.208 490.152H101.821L101.26 494.17C101.073 495.446 101.135 495.882 102.256 495.882H102.817C103.938 495.882 104.156 495.446 104.312 494.17ZM102.599 484.64L102.132 487.972H105.153L105.651 484.64C105.838 483.363 105.744 482.927 104.623 482.927H104.094C102.973 482.927 102.786 483.363 102.599 484.64ZM114.384 493.827L115.038 489.156C114.695 489.405 114.197 489.592 113.637 489.81C112.017 490.433 111.768 490.993 111.55 492.519L111.301 494.232C111.114 495.446 111.176 495.882 112.235 495.882H112.702C113.73 495.882 114.197 495.135 114.384 493.827ZM112.36 488.159C115.1 487.1 115.38 486.882 115.661 484.858L115.692 484.64C115.879 483.363 115.785 482.927 114.664 482.927H114.166C113.045 482.927 112.827 483.363 112.671 484.64L112.422 486.602H110.086L110.398 484.267C110.772 481.464 111.581 480.654 114.135 480.654H115.505C118.059 480.654 118.65 481.464 118.246 484.267L116.72 495.104C116.564 496.1 116.439 496.972 116.533 498H114.197C114.104 497.657 114.073 497.066 114.166 496.194C113.699 497.408 112.858 498.156 111.332 498.156H110.709C108.81 498.156 108.405 497.377 108.685 495.197L109.059 492.395C109.339 490.183 109.931 489.094 112.36 488.159ZM124.795 493.827L126.041 484.983C126.227 483.675 125.947 482.927 124.92 482.927H124.452C123.394 482.927 123.238 483.363 123.051 484.578L121.681 494.232C121.494 495.446 121.556 495.882 122.615 495.882H123.113C124.141 495.882 124.608 495.135 124.795 493.827ZM127.099 495.104C126.944 496.1 126.85 496.972 126.944 498H124.577C124.484 497.657 124.484 497.066 124.577 496.163C124.11 497.408 123.269 498.156 121.712 498.156H121.089C119.189 498.156 118.754 497.377 119.065 495.197L120.715 483.613C121.027 481.433 121.65 480.654 123.549 480.654H124.172C125.542 480.654 126.196 481.246 126.414 482.242L127.255 476.201H129.746L127.099 495.104ZM138.992 480.53L137.124 493.671C136.906 495.135 136.968 495.602 138.245 495.602H138.899C140.207 495.602 140.362 495.135 140.58 493.671L141.234 489.094H143.819L143.103 494.107C142.667 497.253 141.795 498.156 138.899 498.156H137.404C134.539 498.156 133.885 497.253 134.321 494.107L136.283 480.094C136.719 476.948 137.653 476.045 140.518 476.045H142.013C144.909 476.045 145.501 476.948 145.065 480.094L144.504 484.173H141.919L142.418 480.53C142.605 479.066 142.605 478.599 141.297 478.599H140.643C139.366 478.599 139.21 479.066 138.992 480.53ZM154.801 484.267L153.338 494.543C152.933 497.346 152.154 498.156 149.601 498.156H148.075C145.49 498.156 144.929 497.346 145.334 494.543L146.767 484.267C147.172 481.464 147.95 480.654 150.535 480.654H152.061C154.615 480.654 155.206 481.464 154.801 484.267ZM149.196 484.64L147.857 494.17C147.67 495.446 147.732 495.882 148.853 495.882H149.414C150.535 495.882 150.722 495.446 150.909 494.17L152.248 484.64C152.435 483.363 152.341 482.927 151.22 482.927H150.691C149.57 482.927 149.383 483.363 149.196 484.64ZM157.77 498H155.278L157.676 480.81H160.012L159.731 482.834C160.167 481.495 161.039 480.654 162.659 480.654H163.126C164.59 480.654 165.15 481.121 165.212 482.336C165.711 481.277 166.551 480.654 167.984 480.654H168.482C170.382 480.654 170.818 481.433 170.506 483.613L168.482 498H166.022L167.891 484.578C168.046 483.363 167.984 482.927 166.925 482.927H166.614C165.617 482.927 165.15 483.675 164.963 484.983L163.126 498H160.635L162.534 484.578C162.721 483.363 162.628 482.927 161.569 482.927H161.257C160.23 482.927 159.794 483.675 159.607 484.983L157.77 498ZM175.898 480.81L173.5 498H171.008L173.406 480.81H175.898ZM173.718 478.723L174.06 476.201H176.552L176.178 478.723H173.718ZM181.981 494.17L182.417 491.024H184.753L184.254 494.543C183.849 497.346 183.071 498.156 180.517 498.156H179.147C176.562 498.156 176.002 497.346 176.407 494.543L177.839 484.267C178.244 481.464 179.022 480.654 181.607 480.654H182.977C185.531 480.654 186.123 481.464 185.718 484.267L185.251 487.474H182.915L183.32 484.64C183.507 483.363 183.413 482.927 182.292 482.927H181.763C180.642 482.927 180.455 483.363 180.268 484.64L178.929 494.17C178.742 495.446 178.804 495.882 179.926 495.882H180.486C181.607 495.882 181.794 495.446 181.981 494.17ZM191.805 494.17L191.898 493.391C192.085 491.896 191.773 491.429 189.936 490.028C187.787 488.44 187.351 487.412 187.694 485.232L187.85 484.267C188.317 481.464 189.002 480.654 191.587 480.654H192.957C195.51 480.654 196.133 481.464 195.697 484.267L195.324 486.664H192.988L193.299 484.64C193.486 483.363 193.393 482.927 192.303 482.927H191.742C190.621 482.927 190.466 483.363 190.248 484.64L190.154 485.17C189.905 486.633 190.31 487.1 192.147 488.471C194.296 490.09 194.67 491.087 194.389 493.298L194.234 494.543C193.891 497.346 193.05 498.156 190.497 498.156H189.126C186.542 498.156 186.012 497.346 186.386 494.543L186.76 491.834H189.064L188.753 494.17C188.597 495.446 188.628 495.882 189.78 495.882H190.31C191.462 495.882 191.649 495.446 191.805 494.17ZM196.059 498L196.589 494.263H199.422L198.924 498H196.059ZM206.234 498L209.286 476.201H212.026L208.975 498H206.234ZM212.835 482.896L213.115 480.81H214.33L214.859 477.073H217.351L216.821 480.81H218.472L218.192 482.896H216.51L214.953 494.076C214.766 495.54 214.673 496.848 214.953 498H212.306C212.088 497.284 212.212 495.945 212.399 494.512L214.019 482.896H212.835ZM220.173 479.938L220.702 476.201H223.536L223.038 479.938L220.204 482.585L220.048 482.429L221.979 479.938H220.173ZM228.373 494.17L228.466 493.391C228.653 491.896 228.342 491.429 226.504 490.028C224.356 488.44 223.92 487.412 224.262 485.232L224.418 484.267C224.885 481.464 225.57 480.654 228.155 480.654H229.525C232.079 480.654 232.702 481.464 232.266 484.267L231.892 486.664H229.556L229.868 484.64C230.055 483.363 229.961 482.927 228.871 482.927H228.311C227.19 482.927 227.034 483.363 226.816 484.64L226.722 485.17C226.473 486.633 226.878 487.1 228.715 488.471C230.864 490.09 231.238 491.087 230.958 493.298L230.802 494.543C230.459 497.346 229.619 498.156 227.065 498.156H225.695C223.11 498.156 222.581 497.346 222.954 494.543L223.328 491.834H225.632L225.321 494.17C225.165 495.446 225.196 495.882 226.349 495.882H226.878C228.03 495.882 228.217 495.446 228.373 494.17ZM241.306 484.422L240.559 489.747C240.372 491.024 240.434 491.491 241.556 491.491H242.116C243.237 491.491 243.424 491.024 243.611 489.747L244.327 484.422C244.514 483.145 244.452 482.678 243.331 482.678H242.77C241.68 482.678 241.493 483.145 241.306 484.422ZM243.517 499.183L243.549 498.997C243.704 498.031 243.206 497.875 242.178 497.875H240.123C239.22 497.875 238.784 498.187 238.659 499.059L238.628 499.246C238.473 500.336 238.908 500.491 239.843 500.491H241.805C242.863 500.491 243.331 500.336 243.517 499.183ZM242.209 493.516H240.715C239.905 493.516 239.594 493.796 239.469 494.668C239.344 495.415 239.749 495.602 240.59 495.602H242.521C244.639 495.602 245.978 495.945 245.666 498.498L245.604 498.997C245.293 501.457 244.14 502.111 241.649 502.111H238.971C237.383 502.111 236.542 501.457 236.729 499.713L236.791 499.152C236.884 498.187 237.383 497.626 238.13 497.346C237.632 496.91 237.538 496.225 237.663 495.353L237.694 495.135C237.85 494.107 238.286 493.516 238.908 493.204C238.037 492.737 237.881 491.741 238.13 489.903L238.94 484.267C239.344 481.464 240.123 480.654 242.677 480.654H243.829C245.386 480.654 246.196 480.966 246.507 481.838C246.694 481.184 247.099 480.654 247.815 480.654H248.22L247.908 482.865H247.504C247.13 482.865 246.912 483.145 246.85 483.675L245.978 489.903C245.573 492.675 244.794 493.516 242.209 493.516ZM253.309 494.17L253.558 492.145H255.893L255.582 494.543C255.208 497.346 254.399 498.156 251.845 498.156H250.475C247.89 498.156 247.329 497.346 247.734 494.543L249.167 484.267C249.572 481.464 250.35 480.654 252.935 480.654H254.305C256.859 480.654 257.45 481.464 257.046 484.267L256.205 490.152H250.817L250.257 494.17C250.07 495.446 250.132 495.882 251.253 495.882H251.814C252.935 495.882 253.153 495.446 253.309 494.17ZM251.596 484.64L251.129 487.972H254.149L254.648 484.64C254.834 483.363 254.741 482.927 253.62 482.927H253.091C251.969 482.927 251.783 483.363 251.596 484.64ZM258.709 482.896L258.99 480.81H260.204L260.734 477.073H263.225L262.696 480.81H264.346L264.066 482.896H262.384L260.827 494.076C260.64 495.54 260.547 496.848 260.827 498H258.18C257.962 497.284 258.087 495.945 258.273 494.512L259.893 482.896H258.709ZM269.161 494.17L269.255 493.391C269.441 491.896 269.13 491.429 267.293 490.028C265.144 488.44 264.708 487.412 265.05 485.232L265.206 484.267C265.673 481.464 266.358 480.654 268.943 480.654H270.313C272.867 480.654 273.49 481.464 273.054 484.267L272.68 486.664H270.344L270.656 484.64C270.843 483.363 270.749 482.927 269.659 482.927H269.099C267.978 482.927 267.822 483.363 267.604 484.64L267.511 485.17C267.261 486.633 267.666 487.1 269.504 488.471C271.652 490.09 272.026 491.087 271.746 493.298L271.59 494.543C271.248 497.346 270.407 498.156 267.853 498.156H266.483C263.898 498.156 263.369 497.346 263.742 494.543L264.116 491.834H266.421L266.109 494.17C265.953 495.446 265.985 495.882 267.137 495.882H267.666C268.819 495.882 269.005 495.446 269.161 494.17ZM352.43 480.81L350.032 498H347.541L349.939 480.81H352.43ZM350.25 478.723L350.593 476.201H353.084L352.711 478.723H350.25ZM360.631 498H358.14L360.008 484.578C360.164 483.363 360.133 482.927 359.074 482.927H358.576C357.548 482.927 357.112 483.675 356.925 484.983L355.088 498H352.597L354.995 480.81H357.33L357.05 482.834C357.486 481.495 358.358 480.654 359.977 480.654H360.6C362.5 480.654 362.936 481.433 362.624 483.613L360.631 498ZM368.909 482.896L369.19 480.81H370.404L370.934 477.073H373.425L372.895 480.81H374.546L374.266 482.896H372.584L371.027 494.076C370.84 495.54 370.747 496.848 371.027 498H368.38C368.162 497.284 368.286 495.945 368.473 494.512L370.093 482.896H368.909ZM381.759 498H379.268L381.136 484.578C381.292 483.363 381.261 482.927 380.202 482.927H379.704C378.676 482.927 378.24 483.675 378.053 484.983L376.216 498H373.724L376.776 476.201H379.268L378.427 482.273C378.925 481.246 379.704 480.654 381.105 480.654H381.728C383.627 480.654 384.063 481.433 383.752 483.613L381.759 498ZM390.171 494.17L390.42 492.145H392.756L392.444 494.543C392.071 497.346 391.261 498.156 388.707 498.156H387.337C384.752 498.156 384.192 497.346 384.597 494.543L386.029 484.267C386.434 481.464 387.213 480.654 389.797 480.654H391.167C393.721 480.654 394.313 481.464 393.908 484.267L393.067 490.152H387.68L387.119 494.17C386.932 495.446 386.995 495.882 388.116 495.882H388.676C389.797 495.882 390.015 495.446 390.171 494.17ZM388.458 484.64L387.991 487.972H391.012L391.51 484.64C391.697 483.363 391.603 482.927 390.482 482.927H389.953C388.832 482.927 388.645 483.363 388.458 484.64ZM396.88 498H394.388L396.786 480.81H399.122L398.779 483.177C399.278 481.588 400.119 480.654 401.426 480.654H401.644L401.271 483.301H401.022C399.496 483.301 398.779 484.235 398.468 486.54L396.88 498ZM406.76 494.17L407.009 492.145H409.345L409.033 494.543C408.66 497.346 407.85 498.156 405.296 498.156H403.926C401.341 498.156 400.781 497.346 401.186 494.543L402.618 484.267C403.023 481.464 403.802 480.654 406.386 480.654H407.756C410.31 480.654 410.902 481.464 410.497 484.267L409.656 490.152H404.269L403.708 494.17C403.521 495.446 403.584 495.882 404.705 495.882H405.265C406.386 495.882 406.604 495.446 406.76 494.17ZM405.047 484.64L404.58 487.972H407.601L408.099 484.64C408.286 483.363 408.192 482.927 407.071 482.927H406.542C405.421 482.927 405.234 483.363 405.047 484.64Z" fill="white"/>
<path d="M283.153 480.53L281.285 493.671C281.067 495.135 281.129 495.602 282.406 495.602H283.06C284.368 495.602 284.524 495.135 284.742 493.671L285.396 489.094H287.98L287.264 494.107C286.828 497.253 285.956 498.156 283.06 498.156H281.565C278.7 498.156 278.046 497.253 278.482 494.107L280.444 480.094C280.88 476.948 281.814 476.045 284.679 476.045H286.174C289.07 476.045 289.662 476.948 289.226 480.094L288.665 484.173H286.081L286.579 480.53C286.766 479.066 286.766 478.599 285.458 478.599H284.804C283.527 478.599 283.371 479.066 283.153 480.53ZM298.963 484.267L297.499 494.543C297.094 497.346 296.316 498.156 293.762 498.156H292.236C289.651 498.156 289.091 497.346 289.496 494.543L290.928 484.267C291.333 481.464 292.111 480.654 294.696 480.654H296.222C298.776 480.654 299.367 481.464 298.963 484.267ZM293.357 484.64L292.018 494.17C291.831 495.446 291.893 495.882 293.015 495.882H293.575C294.696 495.882 294.883 495.446 295.07 494.17L296.409 484.64C296.596 483.363 296.502 482.927 295.381 482.927H294.852C293.731 482.927 293.544 483.363 293.357 484.64ZM301.931 498H299.439L302.491 476.201H304.983L301.931 498ZM314.305 484.267L312.841 494.543C312.436 497.346 311.658 498.156 309.104 498.156H307.578C304.993 498.156 304.433 497.346 304.838 494.543L306.27 484.267C306.675 481.464 307.454 480.654 310.038 480.654H311.564C314.118 480.654 314.71 481.464 314.305 484.267ZM308.699 484.64L307.36 494.17C307.173 495.446 307.236 495.882 308.357 495.882H308.917C310.038 495.882 310.225 495.446 310.412 494.17L311.751 484.64C311.938 483.363 311.845 482.927 310.723 482.927H310.194C309.073 482.927 308.886 483.363 308.699 484.64ZM317.273 498H314.782L317.179 480.81H319.515L319.173 483.177C319.671 481.588 320.512 480.654 321.82 480.654H322.038L321.664 483.301H321.415C319.889 483.301 319.173 484.235 318.861 486.54L317.273 498ZM322.42 482.896L322.7 480.81H323.914L324.07 479.782C324.475 477.011 325.253 476.201 327.807 476.201H328.835L328.523 478.163H328.025C327.06 478.163 326.717 478.35 326.53 479.782L326.375 480.81H328.181L327.869 482.896H326.125L324.008 498H321.516L323.634 482.896H322.42ZM335.733 495.104C335.578 496.1 335.453 496.972 335.578 498H333.211C333.117 497.657 333.117 497.066 333.211 496.163C332.744 497.408 331.903 498.156 330.346 498.156H329.723C327.823 498.156 327.387 497.377 327.699 495.197L329.723 480.81H332.183L330.315 494.232C330.159 495.446 330.19 495.882 331.249 495.882H331.716C332.744 495.882 333.242 495.135 333.429 493.827L335.235 480.81H337.726L335.733 495.104ZM340.377 498H337.886L340.938 476.201H343.429L340.377 498Z" fill="#F5D045"/>
<g filter="url(#filter1_d_1211_4659)">
<path d="M790.661 232.384C788.733 229.31 789.661 225.254 792.734 223.324L931.733 136.04C937.006 132.729 943.989 135.073 946.197 140.895L958.021 172.076C959.131 175.004 958.022 178.309 955.37 179.974L921.667 201.138L874.675 230.647V230.647C868.312 234.097 866.157 242.187 869.961 248.345L898.033 293.799L930.109 345.737C932.017 348.826 931.059 352.876 927.97 354.784L889.896 378.299C886.822 380.197 882.792 379.259 880.873 376.199L790.661 232.384Z" fill="url(#paint1_radial_1211_4659)"/>
<path d="M664.491 286.974C661.524 282.171 663.013 275.873 667.816 272.906L724.78 237.726C729.583 234.759 735.881 236.248 738.847 241.051L758.461 272.809L850.551 421.92C853.518 426.723 852.029 433.021 847.226 435.987L790.262 471.168C785.459 474.134 779.161 472.645 776.194 467.842L664.491 286.974Z" fill="url(#paint2_linear_1211_4659)"/>
<path d="M608.342 196.057C605.391 191.28 606.872 185.017 611.649 182.067L948.894 -26.2148C953.758 -29.219 960.155 -27.0583 962.202 -21.7199L987.082 43.1823C988.83 47.7433 987.088 52.9032 982.932 55.4699L845.501 140.347L766.667 189.034L709.908 224.088L657.566 256.415C652.789 259.365 646.526 257.884 643.576 253.107L608.342 196.057Z" fill="url(#paint3_linear_1211_4659)"/>
<path d="M837.448 567.023C840.398 571.799 846.662 573.28 851.438 570.33L1188.68 362.048C1193.55 359.044 1194.48 352.357 1190.62 348.136L1143.73 296.828C1140.44 293.222 1135.04 292.47 1130.89 295.037L993.456 379.913L914.622 428.601L857.863 463.655L805.521 495.982C800.744 498.932 799.264 505.195 802.214 509.972L837.448 567.023Z" fill="url(#paint4_linear_1211_4659)"/>
</g>
<rect width="568" height="576" transform="translate(500)" fill="#121426" fill-opacity="0.38"/>
</g>
<defs>
<filter id="filter0_d_1211_4659" x="32.1253" y="360.831" width="456.815" height="102.77" filterUnits="userSpaceOnUse" color-interpolation-filters="sRGB">
<feFlood flood-opacity="0" result="BackgroundImageFix"/>
<feColorMatrix in="SourceAlpha" type="matrix" values="0 0 0 0 0 0 0 0 0 0 0 0 0 0 0 0 0 0 127 0" result="hardAlpha"/>
<feOffset dx="2.11765" dy="2.11765"/>
<feGaussianBlur stdDeviation="9.52941"/>
<feComposite in2="hardAlpha" operator="out"/>
<feColorMatrix type="matrix" values="0 0 0 0 0 0 0 0 0 0 0 0 0 0 0 0 0 0 0.25 0"/>
<feBlend mode="normal" in2="BackgroundImageFix" result="effect1_dropShadow_1211_4659"/>
<feBlend mode="normal" in="SourceGraphic" in2="effect1_dropShadow_1211_4659" result="shape"/>
</filter>
<filter id="filter1_d_1211_4659" x="549.545" y="-64.0727" width="701.96" height="714.58" filterUnits="userSpaceOnUse" color-interpolation-filters="sRGB">
<feFlood flood-opacity="0" result="BackgroundImageFix"/>
<feColorMatrix in="SourceAlpha" type="matrix" values="0 0 0 0 0 0 0 0 0 0 0 0 0 0 0 0 0 0 127 0" result="hardAlpha"/>
<feOffset dy="21.3819"/>
<feGaussianBlur stdDeviation="26.7274"/>
<feComposite in2="hardAlpha" operator="out"/>
<feColorMatrix type="matrix" values="0 0 0 0 0 0 0 0 0 0 0 0 0 0 0 0 0 0 0.25 0"/>
<feBlend mode="normal" in2="BackgroundImageFix" result="effect1_dropShadow_1211_4659"/>
<feBlend mode="normal" in="SourceGraphic" in2="effect1_dropShadow_1211_4659" result="shape"/>
</filter>
<linearGradient id="paint0_linear_1211_4659" x1="57.6439" y1="391.261" x2="463.571" y2="434.391" gradientUnits="userSpaceOnUse">
<stop stop-color="#F82715"/>
<stop offset="0.263729" stop-color="#F88E1D"/>
<stop offset="0.534573" stop-color="#F5D045"/>
<stop offset="0.571033" stop-color="#D0C26D"/>
<stop offset="0.800209" stop-color="#5795F0"/>
</linearGradient>
<radialGradient id="paint1_radial_1211_4659" cx="0" cy="0" r="1" gradientUnits="userSpaceOnUse" gradientTransform="translate(843.067 456.34) rotate(-69.9307) scale(360.515 385.147)">
<stop offset="0.349259" stop-color="#2BC3F2"/>
<stop offset="0.745156" stop-color="#538CFB"/>
<stop offset="1" stop-color="#B4A3DF"/>
</radialGradient>
<linearGradient id="paint2_linear_1211_4659" x1="666.772" y1="290.669" x2="839.336" y2="448.725" gradientUnits="userSpaceOnUse">
<stop stop-color="#F47229"/>
<stop offset="1" stop-color="#FFC107"/>
</linearGradient>
<linearGradient id="paint3_linear_1211_4659" x1="966.523" y1="-37.1023" x2="626.763" y2="211.971" gradientUnits="userSpaceOnUse">
<stop stop-color="#F90E0E"/>
<stop offset="1" stop-color="#F47229"/>
</linearGradient>
<linearGradient id="paint4_linear_1211_4659" x1="799.312" y1="505.273" x2="1182.62" y2="323.696" gradientUnits="userSpaceOnUse">
<stop stop-color="#F7CF43"/>
<stop offset="1" stop-color="#9ED77B"/>
</linearGradient>
<clipPath id="clip0_1211_4659">
<rect width="1068" height="576" fill="white"/>
</clipPath>
</defs>
</svg>
